<?xml version="1.0" encoding="utf-8"?>
<!-- Generator: Adobe Illustrator 15.1.0, SVG Export Plug-In  -->
<!DOCTYPE svg PUBLIC "-//W3C//DTD SVG 1.1//EN" "http://www.w3.org/Graphics/SVG/1.1/DTD/svg11.dtd" [
	<!ENTITY ns_flows "http://ns.adobe.com/Flows/1.0/">
]>
<svg version="1.1"
	 xmlns="http://www.w3.org/2000/svg" xmlns:xlink="http://www.w3.org/1999/xlink" xmlns:a="http://ns.adobe.com/AdobeSVGViewerExtensions/3.0/"
	 x="0px" y="0px" width="32px" height="32px" viewBox="-0.127 -4.899 32 32" enable-background="new -0.127 -4.899 32 32"
	 xml:space="preserve">
<defs>
</defs>
<path fill="#040000" d="M23.86,6.432H2.238l4.547-5.096C7.08,1.005,7.051,0.498,6.72,0.204C6.389-0.091,5.882-0.063,5.588,0.268
	l-5.12,5.739c-0.624,0.699-0.624,1.754,0,2.453l5.12,5.739c0.158,0.178,0.378,0.268,0.599,0.268c0.19,0,0.38-0.067,0.534-0.203
	c0.331-0.295,0.359-0.803,0.064-1.133L2.238,8.035H23.86c3.463,0,6.281,2.817,6.281,6.28c0,3.464-2.818,6.281-6.281,6.281h-3.818
	c-0.442,0-0.802,0.359-0.802,0.802c0,0.443,0.359,0.803,0.802,0.803h3.818c4.348,0,7.885-3.537,7.885-7.886
	C31.745,9.968,28.208,6.432,23.86,6.432"/>
</svg>
