<?xml version="1.0" encoding="utf-8"?>
<!-- Generator: Adobe Illustrator 15.1.0, SVG Export Plug-In  -->
<!DOCTYPE svg PUBLIC "-//W3C//DTD SVG 1.1//EN" "http://www.w3.org/Graphics/SVG/1.1/DTD/svg11.dtd" [
	<!ENTITY ns_flows "http://ns.adobe.com/Flows/1.0/">
]>
<svg version="1.1"
	 xmlns="http://www.w3.org/2000/svg" xmlns:xlink="http://www.w3.org/1999/xlink" xmlns:a="http://ns.adobe.com/AdobeSVGViewerExtensions/3.0/"
	 x="0px" y="0px" width="32px" height="32px" viewBox="0.085 -1.901 32 32" enable-background="new 0.085 -1.901 32 32"
	 xml:space="preserve">
<defs>
</defs>
<path d="M10.087,18.333L27.88,15.41c0.223-0.037,0.409-0.189,0.488-0.401l3.764-10.132c0.071-0.193,0.044-0.408-0.073-0.577
	c-0.118-0.169-0.311-0.27-0.517-0.27H6.018L4.897,0.441C4.815,0.179,4.572,0,4.298,0h-3.67C0.281,0,0,0.281,0,0.628
	s0.281,0.629,0.628,0.629h3.208l4.37,13.983c0.084,0.268,0.331,0.44,0.599,0.44c0.063,0,0.125-0.009,0.188-0.029
	c0.331-0.103,0.516-0.455,0.412-0.786l-1.23-3.935h4.166l0.824,5.625L9.85,17.101c-1.451,0.319-2.083,1.657-1.957,2.813
	c0.11,1.013,0.746,1.691,1.581,1.691h19.357v-1.256H9.474c-0.176,0-0.302-0.294-0.333-0.572C9.096,19.36,9.242,18.521,10.087,18.333
	z M19.165,5.285h5.146l-0.621,4.39h-4.525V5.285z M17.909,9.675h-4.483l-0.643-4.39h5.126V9.675z M23.512,10.931l-0.568,4.018
	l-3.779,0.621v-4.639H23.512z M27.317,14.229l-3.076,0.506l0.539-3.805h3.763L27.317,14.229z M29.01,9.675h-4.052l0.622-4.39h5.061
	L29.01,9.675z M7.783,9.675l-1.372-4.39h5.103l0.643,4.39H7.783z M13.609,10.931h4.3v4.846l-3.506,0.576L13.609,10.931z"/>
<path d="M11.312,23.051c-1.418,0-2.573,1.154-2.573,2.573s1.154,2.573,2.573,2.573c1.419,0,2.573-1.154,2.573-2.573
	S12.73,23.051,11.312,23.051z M11.312,26.941c-0.726,0-1.317-0.591-1.317-1.317s0.592-1.317,1.317-1.317
	c0.726,0,1.318,0.591,1.318,1.317S12.038,26.941,11.312,26.941z"/>
<path d="M25.637,23.051c-1.418,0-2.573,1.154-2.573,2.573s1.154,2.573,2.573,2.573c1.419,0,2.573-1.154,2.573-2.573
	S27.056,23.051,25.637,23.051z M25.637,26.941c-0.726,0-1.318-0.591-1.318-1.317s0.592-1.317,1.318-1.317s1.317,0.591,1.317,1.317
	S26.363,26.941,25.637,26.941z"/>
</svg>
