<?xml version="1.0" encoding="utf-8"?>
<!-- Generator: Adobe Illustrator 22.0.1, SVG Export Plug-In . SVG Version: 6.00 Build 0)  -->
<svg version="1.1" id="圖層_1" xmlns="http://www.w3.org/2000/svg" xmlns:xlink="http://www.w3.org/1999/xlink" x="0px" y="0px"
	 viewBox="0 0 32 32" style="enable-background:new 0 0 32 32;" xml:space="preserve">
<path d="M24,0h-4.1c-4.7,0-7.7,3.1-7.7,7.9v3.6H8c-0.4,0-0.7,0.3-0.7,0.7v5.3c0,0.4,0.3,0.7,0.7,0.7h4.2v13.2c0,0.4,0.3,0.7,0.6,0.7
	c0,0,0,0,0,0h5.5c0.4,0,0.6-0.3,0.6-0.6c0,0,0,0,0,0V18.1h4.9c0.4,0,0.7-0.3,0.7-0.7v-5.3c0-0.2-0.1-0.3-0.2-0.5
	c-0.1-0.1-0.3-0.2-0.5-0.2h-4.9V8.4c0-1.5,0.4-2.2,2.3-2.2H24c0.4,0,0.7-0.3,0.7-0.7V0.6C24.7,0.3,24.4,0,24,0C24,0,24,0,24,0z"/>
</svg>
