<?xml version="1.0" encoding="utf-8"?>
<!-- Generator: Adobe Illustrator 15.1.0, SVG Export Plug-In  -->
<!DOCTYPE svg PUBLIC "-//W3C//DTD SVG 1.1//EN" "http://www.w3.org/Graphics/SVG/1.1/DTD/svg11.dtd" [
	<!ENTITY ns_flows "http://ns.adobe.com/Flows/1.0/">
]>
<svg version="1.1"
	 xmlns="http://www.w3.org/2000/svg" xmlns:xlink="http://www.w3.org/1999/xlink" xmlns:a="http://ns.adobe.com/AdobeSVGViewerExtensions/3.0/"
	 x="0px" y="0px" width="32px" height="32px" viewBox="-2.419 -0.346 32 32" enable-background="new -2.419 -0.346 32 32"
	 xml:space="preserve">
<defs>
</defs>
<path fill="#040000" d="M12.01,21.955l7.572-9.332c2.275,0.363,4.669-0.51,6.09-2.26c1.941-2.392,1.987-5.242,0.123-7.626
	C25.64,2.538,25.4,2.425,25.147,2.433c-0.251,0.007-0.484,0.134-0.628,0.341l-1.913,2.773c-0.731-0.147-1.344-0.644-1.639-1.33
	l2.346-2.445c0.181-0.188,0.257-0.453,0.204-0.708c-0.053-0.255-0.227-0.468-0.467-0.569c-2.587-1.093-5.354-0.351-7.216,1.943
	c-1.709,2.105-1.986,4.706-0.741,6.94L7.55,18.674c-1.931-0.288-4.459,0.254-6.055,2.261c-1.924,2.372-1.996,5.222-0.193,7.623
	c0.152,0.204,0.394,0.321,0.649,0.317c0.255-0.005,0.492-0.131,0.636-0.341l1.914-2.771c0.732,0.147,1.345,0.645,1.639,1.329
	l-2.346,2.446c-0.181,0.188-0.257,0.452-0.204,0.708c0.053,0.255,0.227,0.467,0.467,0.569c2.575,1.087,5.337,0.356,7.216-1.915
	C12.982,26.793,13.245,24.182,12.01,21.955 M5.852,29.679l1.758-1.832c0.188-0.195,0.262-0.472,0.199-0.734l-0.009-0.036
	c-0.416-1.7-1.922-2.907-3.671-2.94c-0.264-0.003-0.513,0.125-0.663,0.343l-1.484,2.148c-0.705-1.549-0.452-3.213,0.752-4.697
	c1.295-1.629,3.468-1.98,4.942-1.614c0.298,0.073,0.611-0.033,0.803-0.273l8.197-10.102c0.221-0.269,0.239-0.651,0.044-0.94
	c-1.171-1.727-1.037-3.858,0.346-5.563c1.115-1.373,2.646-2.013,4.19-1.809l-1.758,1.833c-0.187,0.195-0.262,0.472-0.198,0.735
	l0.009,0.035c0.414,1.698,1.918,2.905,3.666,2.94h0.027c0.257-0.002,0.496-0.13,0.641-0.342l1.499-2.172
	c0.748,1.544,0.513,3.213-0.7,4.708c-1.129,1.393-3.18,2.059-4.987,1.619c-0.296-0.072-0.608,0.033-0.801,0.271l-8.226,10.137
	c-0.221,0.272-0.236,0.655-0.04,0.943c1.171,1.728,1.04,3.86-0.34,5.56C8.926,29.252,7.392,29.885,5.852,29.679z"/>
</svg>
