<?xml version="1.0" encoding="utf-8"?>
<!-- Generator: Adobe Illustrator 15.1.0, SVG Export Plug-In  -->
<!DOCTYPE svg PUBLIC "-//W3C//DTD SVG 1.1//EN" "http://www.w3.org/Graphics/SVG/1.1/DTD/svg11.dtd" [
	<!ENTITY ns_flows "http://ns.adobe.com/Flows/1.0/">
]>
<svg version="1.1"
	 xmlns="http://www.w3.org/2000/svg" xmlns:xlink="http://www.w3.org/1999/xlink" xmlns:a="http://ns.adobe.com/AdobeSVGViewerExtensions/3.0/"
	 x="0px" y="0px" width="32px" height="32px" viewBox="0 0 32 32" enable-background="new 0 0 32 32" xml:space="preserve">
<defs>
</defs>
<path fill="#040000" d="M31.813,8.313c-0.589-4.969-3.807-7.955-8.817-8.2C22.538,0.09,22.083,0.038,21.628,0H10.292
	C9.516,0.068,8.737,0.118,7.965,0.214c-2.268,0.283-4.25,1.15-5.775,2.915C0.737,4.811,0.087,6.823,0.055,8.983
	c-0.069,4.7-0.079,9.403,0.003,14.103c0.042,2.535,0.89,4.819,2.834,6.584c1.708,1.552,3.779,2.24,6.018,2.273
	c4.699,0.069,9.402,0.08,14.102-0.001c2.535-0.045,4.817-0.896,6.583-2.842c1.563-1.724,2.139-3.815,2.292-6.071
	c0.029-0.441,0.075-0.88,0.112-1.321V10.372C31.939,9.686,31.894,8.997,31.813,8.313 M28.933,23.28
	c-0.323,3.607-2.078,5.531-5.666,5.696c-4.85,0.224-9.725,0.23-14.575,0.005c-3.731-0.173-5.628-2.398-5.756-6.19
	c-0.115-3.345-0.112-6.696-0.108-10.044c0.001-1.511,0.034-3.035,0.223-4.53C3.46,4.962,5.628,3.128,9.235,3.014
	c3.345-0.106,6.695-0.113,10.043-0.1c1.599,0.007,3.217,0.033,4.79,0.282c2.83,0.448,4.559,2.283,4.806,5.139
	c0.2,2.318,0.164,4.659,0.23,6.991c0.008,0.249,0.001,0.499,0.001,0.747c0.019,0,0.04,0.002,0.058,0.002
	C29.097,18.478,29.146,20.89,28.933,23.28 M15.965,7.803c-4.558-0.001-8.237,3.661-8.242,8.204
	c-0.006,4.589,3.655,8.268,8.229,8.269c4.558,0.001,8.236-3.663,8.241-8.205C24.2,11.484,20.54,7.805,15.965,7.803 M15.965,21.385
	c-2.956,0.002-5.367-2.423-5.352-5.381c0.018-2.93,2.433-5.32,5.367-5.309c2.931,0.01,5.327,2.419,5.324,5.353
	C21.3,18.981,18.897,21.381,15.965,21.385 M24.547,5.553c-1.08-0.01-1.947,0.839-1.955,1.911c-0.007,1.069,0.863,1.943,1.93,1.942
	c1.053,0,1.907-0.841,1.925-1.891C26.462,6.432,25.623,5.563,24.547,5.553"/>
</svg>
