<?xml version="1.0" encoding="utf-8"?>
<!-- Generator: Adobe Illustrator 22.0.1, SVG Export Plug-In . SVG Version: 6.00 Build 0)  -->
<svg version="1.1" id="圖層_1" xmlns="http://www.w3.org/2000/svg" xmlns:xlink="http://www.w3.org/1999/xlink" x="0px" y="0px"
	 viewBox="0 0 32 32" style="enable-background:new 0 0 32 32;" xml:space="preserve">
<path d="M32,13.7c0-7.2-7.2-13-16-13S0,6.6,0,13.7c0,6.4,5.7,11.8,13.4,12.8c0.5,0.1,1.2,0.3,1.4,0.8c0.1,0.5,0.1,1,0,1.4l-0.2,1.4
	c-0.1,0.4-0.3,1.6,1.4,0.9s9.2-5.4,12.6-9.3l0,0C30.7,19.6,31.9,16.7,32,13.7z M10.4,17.5c0,0.2-0.1,0.3-0.3,0.3l0,0H5.6
	c-0.1,0-0.2,0-0.2-0.1l0,0c-0.1-0.1-0.1-0.1-0.1-0.2l0,0v-7c0-0.2,0.1-0.3,0.3-0.3c0,0,0,0,0,0h1.1c0.2,0,0.3,0.1,0.3,0.3
	c0,0,0,0,0,0v5.5h3c0.2,0,0.3,0.1,0.3,0.3l0,0L10.4,17.5z M13.1,17.5c0,0.2-0.1,0.3-0.3,0.3c0,0,0,0,0,0h-1.1
	c-0.2,0-0.3-0.1-0.3-0.3c0,0,0,0,0,0v-7c0-0.2,0.1-0.3,0.3-0.3c0,0,0,0,0,0h1.1c0.2,0,0.3,0.1,0.3,0.3c0,0,0,0,0,0V17.5z M20.8,17.5
	c0,0.2-0.1,0.3-0.3,0.3l0,0h-1.3l0,0l0,0c0,0-0.1,0-0.1-0.1l-3.2-4.3v4.1c0,0.2-0.1,0.3-0.3,0.3c0,0,0,0,0,0h-1.1
	c-0.2,0-0.3-0.1-0.3-0.3c0,0,0,0,0,0v-7c0-0.2,0.1-0.3,0.3-0.3c0,0,0,0,0,0h1.3l0,0l0,0l0,0l0,0l0,0l0,0l0,0l3.2,4.3v-4.1
	c0-0.2,0.1-0.3,0.3-0.3l0,0h1.1c0.2,0,0.3,0.1,0.3,0.3l0,0L20.8,17.5z M27,11.7c0,0.2-0.1,0.3-0.3,0.3c0,0,0,0,0,0h-3.1v1.2h3.1
	c0.2,0,0.3,0.1,0.3,0.3v1.1c0,0.2-0.1,0.3-0.3,0.3h-3.1v1.2h3.1c0.2,0,0.3,0.1,0.3,0.3v1.1c0,0.2-0.1,0.3-0.3,0.3c0,0,0,0,0,0h-4.5
	c-0.1,0-0.2,0-0.2-0.1l0,0c-0.1-0.1-0.1-0.1-0.1-0.2l0,0v-7l0,0c0-0.1,0-0.2,0.1-0.2l0,0c0.1-0.1,0.1-0.1,0.2-0.1h4.5
	c0.2,0,0.3,0.1,0.3,0.3V11.7z"/>
</svg>
