<?xml version="1.0" encoding="utf-8"?>
<!-- Generator: Adobe Illustrator 15.1.0, SVG Export Plug-In  -->
<!DOCTYPE svg PUBLIC "-//W3C//DTD SVG 1.1//EN" "http://www.w3.org/Graphics/SVG/1.1/DTD/svg11.dtd" [
	<!ENTITY ns_flows "http://ns.adobe.com/Flows/1.0/">
]>
<svg version="1.1"
	 xmlns="http://www.w3.org/2000/svg" xmlns:xlink="http://www.w3.org/1999/xlink" xmlns:a="http://ns.adobe.com/AdobeSVGViewerExtensions/3.0/"
	 x="0px" y="0px" width="32px" height="32px" viewBox="-0.723 -0.134 32 32" enable-background="new -0.723 -0.134 32 32"
	 xml:space="preserve">
<defs>
</defs>
<path fill="#040000" d="M30.388,30.718l-8.903-9.258c2.271-2.277,3.677-5.416,3.677-8.879C25.163,5.643,19.519,0,12.582,0
	C5.643,0,0,5.643,0,12.581s5.643,12.582,12.582,12.582c3.045,0,5.84-1.089,8.019-2.896l8.924,9.281
	c0.117,0.122,0.275,0.184,0.432,0.184c0.149,0,0.298-0.056,0.415-0.166C30.609,31.336,30.617,30.957,30.388,30.718z M12.582,23.964
	c-6.278,0-11.384-5.106-11.384-11.383c0-6.277,5.106-11.383,11.384-11.383c6.277,0,11.383,5.105,11.383,11.383
	C23.964,18.857,18.858,23.964,12.582,23.964z"/>
</svg>
