<?xml version="1.0" encoding="utf-8"?>
<!-- Generator: Adobe Illustrator 15.1.0, SVG Export Plug-In  -->
<!DOCTYPE svg PUBLIC "-//W3C//DTD SVG 1.1//EN" "http://www.w3.org/Graphics/SVG/1.1/DTD/svg11.dtd" [
	<!ENTITY ns_flows "http://ns.adobe.com/Flows/1.0/">
]>
<svg version="1.1"
	 xmlns="http://www.w3.org/2000/svg" xmlns:xlink="http://www.w3.org/1999/xlink" xmlns:a="http://ns.adobe.com/AdobeSVGViewerExtensions/3.0/"
	 x="0px" y="0px" width="42px" height="50px" viewBox="0 0 42 50" enable-background="new 0 0 42 50" xml:space="preserve">
<defs>
</defs>
<path fill="#262626" d="M15.19,26.529c-0.177,0-0.354-0.047-0.514-0.146C13.233,25.49,9.523,23.078,6.252,20
	C2.104,16.094,0,12.422,0,9.086C0,4.076,4.076,0,9.087,0c2.695,0,5.192,1.165,6.923,3.214C17.741,1.165,20.238,0,22.933,0
	c5.01,0,9.086,4.076,9.086,9.086c0,2.183-0.914,4.534-2.717,6.989c-0.158,0.215-0.395,0.357-0.658,0.397
	c-0.262,0.036-0.531-0.027-0.745-0.187c-0.441-0.328-0.552-0.965-0.226-1.408C29.217,12.779,30,10.83,30,9.086
	c0-3.896-3.17-7.066-7.067-7.066c-2.219,0-4.268,1.019-5.619,2.795c-0.626,0.825-1.983,0.824-2.609-0.001
	c-1.35-1.775-3.398-2.794-5.618-2.794c-3.897,0-7.068,3.17-7.068,7.066c0,2.756,1.89,5.934,5.619,9.442
	c3.141,2.958,6.713,5.277,8.103,6.138c0.228,0.142,0.389,0.367,0.449,0.628c0.06,0.262,0.012,0.535-0.132,0.761
	C15.863,26.358,15.529,26.529,15.19,26.529z"/>
<path fill="#262626" d="M29.135,50.356c-4.016,0-6.501-1.945-8.403-3.848c-1.834-1.834-3.251-3.633-4.737-6.014
	c-2.118-3.396-5.614-6.521-5.649-6.553c-0.212-0.188-0.334-0.459-0.335-0.743c-0.003-0.843,0.389-2.481,1.882-3.281
	c0.767-0.41,1.595-0.619,2.463-0.619c1.397,0,3.4,0.566,5.655,2.938V18.522c0-1.93,1.57-3.5,3.5-3.5s3.5,1.57,3.5,3.5v8.188
	c0.455-0.217,0.963-0.338,1.5-0.338c1.275,0,2.393,0.686,3.005,1.707c0.566-0.395,1.254-0.626,1.995-0.626
	c1.226,0,2.307,0.634,2.932,1.59c0.58-0.426,1.295-0.678,2.068-0.678c1.93,0,3.5,1.57,3.5,3.5v6.866
	C42.01,45.142,36.234,50.356,29.135,50.356z M12.063,32.804c1.014,0.949,3.768,3.649,5.629,6.633
	c1.419,2.274,2.71,3.914,4.455,5.658c1.693,1.694,3.712,3.262,6.989,3.262c5.997,0,10.875-4.317,10.875-9.625v-6.866
	c0-0.827-0.673-1.5-1.5-1.5s-1.5,0.673-1.5,1.5v0.913c0,0.553-0.448,1-1,1s-1-0.447-1-1v-1.825c0-0.827-0.673-1.5-1.5-1.5
	s-1.5,0.673-1.5,1.5v0.991c0,0.553-0.448,1-1,1s-1-0.447-1-1v-2.072c0-0.827-0.673-1.5-1.5-1.5s-1.5,0.673-1.5,1.5v2.073
	c0,0.553-0.448,1-1,1s-1-0.447-1-1V18.522c0-0.827-0.673-1.5-1.5-1.5s-1.5,0.673-1.5,1.5V35.07c0,0.438-0.284,0.824-0.701,0.954
	c-0.417,0.132-0.871-0.024-1.121-0.384c-2.489-3.588-4.546-4.342-5.833-4.342c-0.535,0-1.046,0.129-1.519,0.383
	C12.34,31.947,12.142,32.449,12.063,32.804z"/>
</svg>
