<?xml version="1.0" encoding="utf-8"?>
<!-- Generator: Adobe Illustrator 15.1.0, SVG Export Plug-In  -->
<!DOCTYPE svg PUBLIC "-//W3C//DTD SVG 1.1//EN" "http://www.w3.org/Graphics/SVG/1.1/DTD/svg11.dtd" [
	<!ENTITY ns_flows "http://ns.adobe.com/Flows/1.0/">
]>
<svg version="1.1"
	 xmlns="http://www.w3.org/2000/svg" xmlns:xlink="http://www.w3.org/1999/xlink" xmlns:a="http://ns.adobe.com/AdobeSVGViewerExtensions/3.0/"
	 x="0px" y="0px" width="32px" height="32px" viewBox="-1.652 -0.253 32 32" enable-background="new -1.652 -0.253 32 32"
	 xml:space="preserve">
<defs>
</defs>
<path fill="#040000" d="M23.248,20.233c-1.751,0-3.312,0.864-4.311,2.197l-8.362-4.832c0.196-0.582,0.303-1.21,0.303-1.857
	c0-0.654-0.106-1.276-0.309-1.864l8.355-4.826c0.992,1.34,2.56,2.21,4.317,2.21c2.996,0,5.442-2.524,5.442-5.631
	c0-3.106-2.44-5.63-5.442-5.63C20.239,0,17.8,2.524,17.8,5.63c0,0.654,0.107,1.282,0.31,1.864L9.76,12.32
	c-0.991-1.347-2.56-2.21-4.316-2.21C2.447,10.11,0,12.634,0,15.741c0,3.105,2.447,5.63,5.449,5.63c1.757,0,3.325-0.87,4.323-2.217
	l8.355,4.833c-0.202,0.589-0.315,1.223-0.315,1.877c0,3.1,2.439,5.63,5.441,5.63c3.003,0,5.442-2.524,5.442-5.63
	S26.25,20.233,23.248,20.233 M23.248,1.772c2.062,0,3.735,1.733,3.735,3.865c0,2.132-1.674,3.865-3.735,3.865
	c-2.061,0-3.734-1.733-3.734-3.865C19.514,3.505,21.194,1.772,23.248,1.772 M5.449,19.605c-2.06,0-3.736-1.733-3.736-3.864
	c0-2.132,1.677-3.865,3.736-3.865c2.061,0,3.736,1.733,3.736,3.865C9.186,17.872,7.503,19.605,5.449,19.605 M23.248,29.722
	c-2.061,0-3.734-1.733-3.734-3.865s1.674-3.864,3.734-3.864c2.062,0,3.735,1.732,3.735,3.864S25.31,29.722,23.248,29.722"/>
</svg>
