<?xml version="1.0" encoding="utf-8"?>
<!-- Generator: Adobe Illustrator 22.0.1, SVG Export Plug-In . SVG Version: 6.00 Build 0)  -->
<svg version="1.1" id="圖層_1" xmlns="http://www.w3.org/2000/svg" xmlns:xlink="http://www.w3.org/1999/xlink" x="0px" y="0px"
	 viewBox="0 0 32 32" style="enable-background:new 0 0 32 32;" xml:space="preserve">
<style type="text/css">
	.st0{fill:#010002;}
</style>
<path class="st0" d="M32,6.1c-1.2,0.5-2.5,0.9-3.8,1c1.4-0.8,2.4-2.1,2.9-3.6c-1.3,0.8-2.7,1.3-4.2,1.6c-2.5-2.6-6.6-2.7-9.3-0.2
	c-1.7,1.6-2.4,4-1.9,6.2C10.5,10.8,5.6,8.3,2.2,4.2c-1.7,3-0.8,6.8,2,8.8c-1,0-2.1-0.3-3-0.8v0.1c0,3.1,2.2,5.8,5.3,6.5
	c-0.6,0.2-1.1,0.2-1.7,0.2c-0.4,0-0.8,0-1.2-0.1c0.9,2.7,3.3,4.5,6.1,4.6c-2.3,1.8-5.2,2.8-8.2,2.8c-0.5,0-1,0-1.6-0.1
	c8.7,5.6,20.2,3,25.8-5.6c1.9-3,3-6.5,3-10.1V9.5C30,8.5,31.1,7.4,32,6.1L32,6.1z"/>
</svg>
