<?xml version="1.0" encoding="utf-8"?>
<!-- Generator: Adobe Illustrator 15.1.0, SVG Export Plug-In  -->
<!DOCTYPE svg PUBLIC "-//W3C//DTD SVG 1.1//EN" "http://www.w3.org/Graphics/SVG/1.1/DTD/svg11.dtd" [
	<!ENTITY ns_flows "http://ns.adobe.com/Flows/1.0/">
]>
<svg version="1.1"
	 xmlns="http://www.w3.org/2000/svg" xmlns:xlink="http://www.w3.org/1999/xlink" xmlns:a="http://ns.adobe.com/AdobeSVGViewerExtensions/3.0/"
	 x="0px" y="0px" width="33px" height="33px" viewBox="-0.042 -2.099 33 33" enable-background="new -0.042 -2.099 33 33"
	 xml:space="preserve">
<defs>
</defs>
<path d="M13.022,0c0.153,0.014,0.306,0.029,0.459,0.04c1.726,0.128,3.376,0.55,4.943,1.288c1.325,0.625,2.514,1.448,3.533,2.505
	c1.214,1.26,2.076,2.72,2.49,4.43c0.004,0.02,0.009,0.041,0.013,0.06c0.001,0.006-0.002,0.014-0.004,0.033
	c-0.179-0.018-0.358-0.039-0.537-0.055c-0.566-0.053-1.133-0.085-1.703-0.056c-0.349,0.019-0.698,0.036-1.045,0.065
	c-0.724,0.062-1.437,0.192-2.139,0.372c-1.673,0.428-3.217,1.13-4.604,2.163c-1.34,0.995-2.425,2.213-3.182,3.709
	c-0.432,0.854-0.721,1.755-0.861,2.704c-0.1,0.682-0.125,1.364-0.053,2.047c0.038,0.36,0.112,0.715,0.171,1.073
	c0.003,0.02,0.005,0.04,0.011,0.077c-0.175-0.026-0.343-0.047-0.511-0.075c-0.828-0.141-1.631-0.37-2.422-0.646
	c-0.042-0.015-0.1-0.004-0.143,0.014c-1.405,0.6-2.81,1.201-4.214,1.802c-0.041,0.017-0.082,0.034-0.143,0.06
	c0.06-0.125,0.11-0.23,0.162-0.335c0.465-0.929,0.93-1.859,1.394-2.789c0.08-0.161,0.09-0.12-0.056-0.218
	c-1.407-0.955-2.572-2.137-3.417-3.622c-0.548-0.959-0.908-1.987-1.074-3.08c-0.032-0.213-0.045-0.429-0.069-0.643
	C0.016,10.881,0.008,10.842,0,10.801V9.773c0.007-0.037,0.018-0.074,0.019-0.112c0.033-0.513,0.117-1.018,0.245-1.516
	c0.47-1.83,1.444-3.356,2.801-4.649C3.99,2.614,5.039,1.912,6.19,1.362c1.588-0.758,3.263-1.191,5.018-1.322
	C11.36,0.029,11.513,0.014,11.665,0H13.022z M9.767,6.176c0-0.85-0.686-1.542-1.528-1.542c-0.855,0-1.545,0.684-1.548,1.533
	C6.688,7.012,7.379,7.709,8.22,7.709C9.075,7.71,9.767,7.025,9.767,6.176 M16.457,4.635c-0.844,0-1.535,0.688-1.536,1.534
	c-0.003,0.844,0.688,1.541,1.53,1.541c0.855,0.001,1.545-0.684,1.545-1.534C17.996,5.322,17.31,4.635,16.457,4.635"/>
<path d="M30.819,28.803c-0.064-0.031-0.126-0.065-0.191-0.093c-1.741-0.747-3.482-1.493-5.225-2.236
	c-0.049-0.022-0.112-0.032-0.165-0.022c-1.045,0.225-2.102,0.339-3.171,0.287c-2.15-0.104-4.157-0.676-5.97-1.861
	c-1.224-0.8-2.226-1.817-2.927-3.111c-0.439-0.813-0.715-1.679-0.801-2.6c-0.146-1.575,0.228-3.029,1.071-4.362
	c0.764-1.208,1.794-2.144,3.014-2.875c1.234-0.741,2.567-1.211,3.982-1.459c0.911-0.16,1.83-0.218,2.751-0.175
	c2.15,0.098,4.157,0.673,5.97,1.857c1.226,0.801,2.228,1.816,2.929,3.111c0.44,0.812,0.709,1.68,0.805,2.598
	c0.006,0.068,0.016,0.136,0.024,0.202v0.905c-0.015,0.129-0.029,0.257-0.046,0.384c-0.129,0.959-0.449,1.851-0.949,2.676
	c-0.718,1.186-1.695,2.116-2.852,2.867c-0.039,0.025-0.077,0.052-0.117,0.079c0.02,0.042,0.035,0.073,0.05,0.103
	c0.334,0.67,0.669,1.339,1.004,2.009c0.285,0.572,0.568,1.146,0.853,1.718H30.819z M19.542,14.921c-0.844,0-1.534,0.688-1.536,1.534
	c-0.002,0.844,0.688,1.54,1.53,1.541c0.855,0,1.545-0.685,1.545-1.534C21.082,15.61,20.396,14.921,19.542,14.921 M27.254,16.463
	c0-0.849-0.685-1.541-1.527-1.542c-0.855,0-1.545,0.681-1.548,1.533c-0.004,0.843,0.688,1.541,1.528,1.542
	C26.563,17.996,27.254,17.313,27.254,16.463"/>
</svg>
