<?xml version="1.0" encoding="utf-8"?>
<!-- Generator: Adobe Illustrator 15.1.0, SVG Export Plug-In  -->
<!DOCTYPE svg PUBLIC "-//W3C//DTD SVG 1.1//EN" "http://www.w3.org/Graphics/SVG/1.1/DTD/svg11.dtd" [
	<!ENTITY ns_flows "http://ns.adobe.com/Flows/1.0/">
]>
<svg version="1.1"
	 xmlns="http://www.w3.org/2000/svg" xmlns:xlink="http://www.w3.org/1999/xlink" xmlns:a="http://ns.adobe.com/AdobeSVGViewerExtensions/3.0/"
	 x="0px" y="0px" width="33px" height="33px" viewBox="-2.748 -0.208 33 33" enable-background="new -2.748 -0.208 33 33"
	 xml:space="preserve">
<defs>
</defs>
<path d="M22.965,20.899c-0.556,0-0.834,0.425-0.834,1.272v0.85h1.662v-0.85C23.792,21.324,23.516,20.899,22.965,20.899"/>
<path d="M27.029,16.496c-0.337-1.462-1.533-2.542-2.974-2.702c-3.411-0.381-6.863-0.382-10.297-0.381
	c-3.439-0.001-6.892,0-10.301,0.381c-1.439,0.161-2.635,1.24-2.972,2.702C0.005,18.579,0,20.852,0,22.997
	c0,2.146,0,4.419,0.479,6.502c0.337,1.461,1.533,2.542,2.972,2.702c3.41,0.382,6.862,0.384,10.299,0.382
	c3.438,0.001,6.889,0,10.301-0.382c1.439-0.16,2.635-1.241,2.972-2.702c0.479-2.083,0.481-4.356,0.481-6.502
	C27.504,20.852,27.508,18.579,27.029,16.496 M7.846,18.111H5.854v10.577h-1.85V18.111H2.051v-1.734h5.794V18.111z M12.866,28.688
	h-1.661v-1.001c-0.661,0.758-1.29,1.126-1.899,1.126c-0.538,0-0.906-0.215-1.071-0.681c-0.093-0.277-0.147-0.717-0.147-1.365v-7.251
	h1.662v6.751c0,0.391,0,0.594,0.015,0.649c0.042,0.257,0.167,0.388,0.388,0.388c0.335,0,0.683-0.258,1.051-0.778v-7.01h1.664V28.688
	z M19.181,25.935c0,0.849-0.056,1.46-0.167,1.85c-0.223,0.681-0.668,1.029-1.329,1.029c-0.592,0-1.162-0.328-1.718-1.014v0.888
	h-1.662V16.377h1.662v4.02c0.537-0.66,1.108-0.993,1.718-0.993c0.661,0,1.106,0.348,1.329,1.034c0.111,0.37,0.167,0.976,0.167,1.844
	V25.935z M25.454,24.405h-3.323v1.626c0,0.851,0.276,1.274,0.849,1.274c0.408,0,0.646-0.224,0.741-0.667
	c0.018-0.09,0.038-0.458,0.038-1.126h1.695v0.243c0,0.535-0.021,0.904-0.035,1.071c-0.054,0.369-0.186,0.7-0.388,0.995
	c-0.46,0.666-1.142,0.996-2.01,0.996c-0.87,0-1.533-0.314-2.012-0.939c-0.354-0.46-0.534-1.183-0.534-2.158v-3.211
	c0-0.98,0.159-1.699,0.512-2.162c0.482-0.628,1.143-0.941,1.992-0.941c0.833,0,1.496,0.313,1.961,0.941
	c0.349,0.463,0.516,1.182,0.516,2.162v1.897H25.454z"/>
<path d="M16.797,20.899c-0.273,0-0.553,0.129-0.829,0.404v5.592c0.276,0.276,0.556,0.409,0.829,0.409
	c0.479,0,0.721-0.409,0.721-1.239v-3.914C17.518,21.324,17.275,20.899,16.797,20.899"/>
<path d="M17.725,12.567c0.612,0,1.25-0.372,1.919-1.138v1.01h1.68V3.169h-1.68v7.085c-0.373,0.525-0.725,0.786-1.062,0.786
	c-0.225,0-0.357-0.133-0.393-0.393c-0.021-0.054-0.021-0.258-0.021-0.654V3.169h-1.675V10.5c0,0.655,0.057,1.098,0.15,1.379
	C16.812,12.349,17.184,12.567,17.725,12.567"/>
<path d="M6.03,7.402v5.038h1.864V7.402L10.134,0H8.251L6.979,4.885L5.658,0H3.698c0.391,1.152,0.8,2.312,1.194,3.466
	C5.489,5.202,5.861,6.51,6.03,7.402"/>
<path d="M12.63,12.567c0.842,0,1.495-0.316,1.96-0.948c0.351-0.465,0.521-1.196,0.521-2.181V6.191c0-0.99-0.168-1.714-0.521-2.182
	c-0.465-0.635-1.118-0.951-1.96-0.951c-0.836,0-1.491,0.316-1.956,0.951c-0.357,0.468-0.525,1.192-0.525,2.182v3.247
	c0,0.985,0.168,1.716,0.525,2.181C11.139,12.251,11.794,12.567,12.63,12.567 M11.83,5.854c0-0.857,0.26-1.284,0.801-1.284
	c0.542,0,0.801,0.427,0.801,1.284v3.9c0,0.857-0.26,1.287-0.801,1.287c-0.541,0-0.801-0.43-0.801-1.287V5.854z"/>
</svg>
