<svg id="icon390" xmlns="http://www.w3.org/2000/svg" viewBox="0 0 164.89 164.93"><defs><style>.cls-1{fill:#f2f2f2;}.cls-2,.cls-5{fill:#545454;}.cls-3,.cls-4{fill:none;}.cls-4{stroke:#545454;stroke-miterlimit:10;stroke-width:5px;}.cls-5{font-size:14px;font-family:ArialMT, Arial;}</style></defs><path class="cls-1" d="M0,146.6a18.32,18.32,0,0,0,18.32,18.31H146.57a18.32,18.32,0,0,0,18.32-18.31V18.34A18.33,18.33,0,0,0,146.57,0H18.32A18.33,18.33,0,0,0,0,18.34Z"/><path class="cls-2" d="M114.14,41.12H99.65l-2.73-5.63a10.29,10.29,0,0,0-8.14-5.12H76.1A10.26,10.26,0,0,0,68,35.49l-2.73,5.63H50.76a9.06,9.06,0,0,0-9.06,9.07V88.31a9.06,9.06,0,0,0,9.06,9.07h63.38a9.07,9.07,0,0,0,9.06-9.07V50.19A9.07,9.07,0,0,0,114.14,41.12ZM52.56,55.77a3.63,3.63,0,1,1,3.62-3.63A3.63,3.63,0,0,1,52.56,55.77ZM82.44,88.43a19.05,19.05,0,1,1,19-19.05A19,19,0,0,1,82.44,88.43Zm0-31.75a12.7,12.7,0,1,0,12.68,12.7A12.71,12.71,0,0,0,82.44,56.68Z"/><path class="cls-3" d="M164.89,146.6a18.32,18.32,0,0,1-18.32,18.31H18.32A18.32,18.32,0,0,1,0,146.6V18.34A18.33,18.33,0,0,1,18.32,0H146.57a18.33,18.33,0,0,1,18.32,18.33Z"/><line class="cls-4" x1="35.9" y1="114" x2="125.14" y2="24.76"/><text class="cls-5" transform="translate(56.18 137.45)">No image</text></svg>