<?xml version="1.0" encoding="utf-8"?>
<!-- Generator: Adobe Illustrator 15.1.0, SVG Export Plug-In  -->
<!DOCTYPE svg PUBLIC "-//W3C//DTD SVG 1.1//EN" "http://www.w3.org/Graphics/SVG/1.1/DTD/svg11.dtd" [
	<!ENTITY ns_flows "http://ns.adobe.com/Flows/1.0/">
]>
<svg version="1.1"
	 xmlns="http://www.w3.org/2000/svg" xmlns:xlink="http://www.w3.org/1999/xlink" xmlns:a="http://ns.adobe.com/AdobeSVGViewerExtensions/3.0/"
	 x="0px" y="0px" width="210px" height="39px" viewBox="0 0 210 39" enable-background="new 0 0 210 39" xml:space="preserve">
<defs>
</defs>
<path fill="#FFFFFF" d="M78.047,8.38l-3.12,2.975c-2.123-2.243-4.514-3.366-7.168-3.366c-2.242,0-4.127,0.768-5.663,2.299
	c-1.536,1.531-2.302,3.418-2.302,5.664c0,1.565,0.34,2.952,1.021,4.164c0.678,1.215,1.641,2.165,2.881,2.857
	c1.244,0.691,2.623,1.037,4.143,1.037c1.295,0,2.479-0.241,3.55-0.728c1.075-0.482,2.252-1.364,3.538-2.641l3.025,3.159
	c-1.732,1.692-3.368,2.862-4.91,3.518c-1.541,0.653-3.299,0.979-5.277,0.979c-3.645,0-6.627-1.155-8.951-3.466
	c-2.321-2.313-3.484-5.275-3.484-8.89c0-2.339,0.53-4.415,1.588-6.232c1.057-1.817,2.571-3.279,4.543-4.385
	c1.972-1.104,4.094-1.656,6.369-1.656c1.934,0,3.797,0.407,5.588,1.225C75.209,5.709,76.752,6.872,78.047,8.38"/>
<polygon fill="#FFFFFF" points="81.937,4.257 86.465,4.257 86.465,13.104 94.293,13.104 94.293,4.257 98.804,4.257 98.804,27.708 
	94.293,27.708 94.293,17.426 86.465,17.426 86.465,27.708 81.937,27.708 "/>
<polygon fill="#FFFFFF" points="128.33,4.257 132.612,4.257 142.646,19.689 142.646,4.257 147.109,4.257 147.109,27.708 
	142.815,27.708 132.794,12.323 132.794,27.708 128.33,27.708 "/>
<path fill="#FFFFFF" d="M174.115,8.083l-3.143,3.108c-1.987-2.104-4.306-3.155-6.957-3.155c-2.309,0-4.241,0.766-5.799,2.296
	c-1.559,1.53-2.338,3.39-2.338,5.579c0,2.263,0.81,4.182,2.426,5.755c1.618,1.573,3.612,2.36,5.984,2.36
	c1.542,0,2.845-0.325,3.903-0.973c1.059-0.65,1.912-1.664,2.559-3.045h-6.791v-4.193h11.797l0.033,0.988
	c0,2.05-0.533,3.997-1.595,5.835c-1.063,1.839-2.438,3.241-4.129,4.209c-1.689,0.967-3.672,1.45-5.945,1.45
	c-2.434,0-4.605-0.528-6.513-1.586c-1.907-1.057-3.416-2.564-4.526-4.52c-1.112-1.954-1.668-4.066-1.668-6.329
	c0-3.104,1.027-5.803,3.078-8.098c2.433-2.732,5.601-4.099,9.501-4.099c2.042,0,3.948,0.378,5.723,1.133
	C171.212,5.437,172.68,6.532,174.115,8.083"/>
<polygon fill="#FFFFFF" points="179.902,4.257 192.703,4.257 192.703,8.626 184.334,8.626 184.334,13.627 192.703,13.627 
	192.703,17.915 184.334,17.915 184.334,23.324 192.703,23.324 192.703,27.708 179.902,27.708 "/>
<path fill="#FFFFFF" d="M207.22,3.221c0.762,0,1.416,0.277,1.962,0.83S210,5.272,210,6.059c0,0.776-0.269,1.438-0.809,1.985
	c-0.541,0.549-1.189,0.821-1.939,0.821c-0.774,0-1.435-0.278-1.98-0.837c-0.546-0.558-0.818-1.236-0.818-2.033
	c0-0.766,0.271-1.42,0.812-1.961C205.804,3.491,206.457,3.221,207.22,3.221 M205.042,10.363h4.352v17.345h-4.352V10.363z"/>
<polygon fill="#FFFFFF" points="115.843,4.257 111.316,4.257 102.273,27.708 106.913,27.708 113.608,10.475 120.225,27.708 
	124.862,27.708 "/>
<path fill="#FFFFFF" d="M19.288,30.06H0V0h19.288v4.293H4.293v21.472h14.995V30.06z M19.288,21.471h-10.7V8.589h10.7v4.293h-6.406
	v4.295h6.406V21.471z"/>
<path fill="#FFFFFF" d="M23.24,8.589h19.289v30.059H23.24v-4.294h14.996V12.882H23.24V8.589z M23.24,17.177h10.701V30.06H23.24
	v-4.293h6.405v-4.296H23.24V17.177z"/>
</svg>
