<?xml version="1.0" encoding="utf-8"?>
<!-- Generator: Adobe Illustrator 24.0.0, SVG Export Plug-In . SVG Version: 6.00 Build 0)  -->
<svg version="1.1" id="圖層_1" xmlns="http://www.w3.org/2000/svg" xmlns:xlink="http://www.w3.org/1999/xlink" x="0px" y="0px"
	 viewBox="0 0 131.9 46.2" style="enable-background:new 0 0 131.9 46.2;" xml:space="preserve">
<style type="text/css">
	.st0{fill:#231815;}
</style>
<title>wddlogo_B</title>
<path class="st0" d="M35.8,10.1l3.8-6.2L37.2,0l-3.8,6.2L29.7,0l-4,6.5l-4-6.5L7.9,22.8L7.8,23l3.9,6.4L10,32.1L4.8,23L16.4,4.2
	L16.5,4l-2.3-4L0.1,22.8L0,23l7.7,13l-3.8,6.2l2.3,4l3.8-6.3l3.7,6.2l4.1-6.7l4,6.7l13.9-23l0.1-0.2l-3.9-6.5l1.6-2.6l5.3,9.1L27,42
	l-0.1,0.2l2.3,4L43,23.7l0.4-0.7L35.8,10.1z M31.1,10l-1.6,2.7L28,10.3l1.7-2.7L31.1,10z M29.5,20.4L31,23l-9.2,15.5l-1.7-2.8
	L29.5,20.4z M17.8,31.8l-1.4-2.4l9.3-15.3l1.4,2.4L17.8,31.8z M14.1,25.5L12.6,23l9.2-15.4l1.6,2.7L14.1,25.5z M15.4,35.6l-1.7,2.8
	L12.3,36l1.7-2.8L15.4,35.6z"/>
<g>
	<path d="M52.5,10.3h12.7V15h-7.9v4.6h7.9v4.7h-7.9v11.5h-4.8V10.3z"/>
	<path d="M69.6,10.3h14V15h-9.1v4.6h9.1v4.7h-9.1v6.7h9.1v4.8h-14V10.3z"/>
	<path d="M101.6,13.8L98,16.9c-1.3-1.8-2.6-2.6-3.9-2.6c-0.6,0-1.2,0.2-1.6,0.5s-0.6,0.7-0.6,1.2c0,0.4,0.1,0.8,0.4,1.2
		c0.4,0.5,1.6,1.6,3.6,3.3c1.9,1.6,3,2.5,3.4,2.9c1,1,1.7,2,2.1,2.9c0.4,0.9,0.6,1.9,0.6,3c0,2.1-0.7,3.8-2.2,5.2
		c-1.5,1.4-3.3,2.1-5.7,2.1c-1.8,0-3.4-0.4-4.8-1.3c-1.4-0.9-2.5-2.3-3.5-4.2l4.1-2.5c1.2,2.3,2.6,3.4,4.3,3.4
		c0.8,0,1.5-0.2,2.1-0.7c0.6-0.5,0.9-1,0.9-1.7c0-0.6-0.2-1.2-0.6-1.7c-0.4-0.6-1.4-1.5-2.8-2.7c-2.8-2.3-4.6-4-5.4-5.3
		s-1.2-2.5-1.2-3.7c0-1.8,0.7-3.3,2-4.6c1.4-1.3,3-1.9,5-1.9c1.3,0,2.5,0.3,3.7,0.9C99,11.1,100.2,12.2,101.6,13.8z"/>
	<path d="M106.7,10.3h5.8c3.7,0,6.5,0.5,8.3,1.4c1.8,0.9,3.3,2.4,4.5,4.5s1.8,4.5,1.8,7.3c0,2-0.3,3.8-1,5.4s-1.6,3-2.7,4.1
		c-1.2,1.1-2.4,1.8-3.7,2.3c-1.3,0.4-3.7,0.6-7,0.6h-5.9V10.3z M111.5,15v16.2h2.3c2.2,0,3.8-0.3,4.8-0.8c1-0.5,1.8-1.4,2.5-2.6
		c0.6-1.2,1-2.7,1-4.5c0-2.7-0.8-4.8-2.3-6.3c-1.4-1.3-3.6-2-6.6-2H111.5z"/>
</g>
</svg>
